<svg xmlns="http://www.w3.org/2000/svg" width="59.007" height="40.095" viewBox="0 0 59.007 40.095">
  <g id="Page-1" transform="translate(0 -0.241)">
    <g id="aap01_PC" transform="translate(0 0.241)">
      <g id="Group-9" transform="translate(0 0)">
        <g id="Group-3" transform="translate(0 13.227)">
          <path id="Fill-1" d="M59.007,23.695A324.15,324.15,0,0,0,0,27.936c7.1-2.51,15.757-3.409,23.929-4.81-.36-3.956-1.585-7.022-2.447-10.461A23.34,23.34,0,0,1,24.472,20.3c.8-3.881.71-8.69,1.9-12.161a73.509,73.509,0,0,0-.815,13.01c.71.912.937-1.085,1.9-.849a4.174,4.174,0,0,0-1.089,2.262c1.118.028,1.707-.488,2.993-.283C30.593,13.563,34.5,7.638,37.8,1.069c-1.875,4.368-4.653,10.245-6.255,15.84,1.45-1.037,4.094-3.285,6.528-4.244C35.714,14.645,32.312,17.991,31,22c9.169.553,20.772.078,28.008,1.7" transform="translate(0 -1.069)" fill="#50483f" fill-rule="evenodd"/>
        </g>
        <g id="Group-6" transform="translate(35.415)">
          <path id="Fill-4" d="M16.527,3.566c.6-.127.787-.614,1.574-.564-.174.268-3.721,2.262-5.033,3.394.227.7.838-.519,1.574-.281C14,6.6,10.307,9.16,8.665,10.637c.315.534,1.45-.549,1.886-.847-2.044,2.875-7.13,5.45-9.436,9.05,0-1.209,1.19-2.482,1.572-4.244a18.54,18.54,0,0,1,.246-2.654c-.227.786,2.132-.032,1.013-.741C5.8,12.255,5.589,7.918,7.091,8.659c-.4-.454-.418-1.134.315-.566.053-.331-.068-.5-.315-.568,1.313-.376,2.517-2.92,3.777-4.24.556.518-.98,1.555-1.26,2.261,1.7-1.209,3.058-2.719,4.719-3.957.857.25-.717.628-.629,1.132C15.34,1.838,16.7.706,18.73.174c-1.556.836-1.713,1.806-2.829,2.547.244.659,1.484-.143,1.571-.569.769.348-.945.819-.945,1.415" transform="translate(-1.116 -0.174)" fill="#50483f" fill-rule="evenodd"/>
        </g>
        <path id="Fill-7" d="M33.255,3.6a41.226,41.226,0,0,0-3.108,3.914c.332.549,1.257-.737,1.571-1.129.526.846-1.224,2.1-1.886,2.825.4.519,1.26-.927,1.886-1.13-2.218,2.214-2.987,5.968-5.346,9.333.438.471,1.453-.942,1.888-1.415-.088,1.445-2.5,3.223-3.46,4.808a.873.873,0,0,0,.943.568c-.734,1.129-2.271,1.538-2.2,3.393a50.17,50.17,0,0,0-1.257-5.372,1.987,1.987,0,0,1,.628.846,12.405,12.405,0,0,0,.629-3.959c.315.015.246.346.315.566,2.359-7.37,4.525-8.564,9.4-13.247" transform="translate(2.775 -0.439)" fill="#50483f" fill-rule="evenodd"/>
      </g>
    </g>
  </g>
</svg>
